<svg width="140" height="140" viewBox="0 0 140 140" fill="none" xmlns="http://www.w3.org/2000/svg">
<path d="M65.2831 55L60 59L66 55H65.2831ZM65.2831 55L60 59L66 55H65.2831ZM65.2831 55L60 59L66 55H65.2831ZM65.2831 55L60 59L66 55H65.2831ZM65.2831 55L60 59L66 55H65.2831ZM65.2831 55L60 59ZM65.2831 55L60 59L66 55H65.2831ZM65.2831 55L60 59L66 55H65.2831ZM65.2831 55L60 59L66 55H65.2831ZM65.2831 55L60 59L66 55H65.2831ZM65.2831 55L60 59L66 55H65.2831ZM65.2831 55L60 59Z" fill="black"/>
<path d="M133 26V45.07L118.941 56.0009L108.436 64.14L104.882 66.8924L90.8315 77.7938L86.6098 81.0966L73.26 91.4377L64.7594 98.0532L59.2011 102.369L45.1504 113.26L42.9335 115H17L31.0915 104.069L38.8177 98.0532L45.1504 93.1284L59.2011 82.2369L60.6762 81.0966L73.26 71.306L82.5022 64.14L90.8315 57.6621L104.882 46.7608L109.805 42.9468L118.941 35.8692L131.631 26H133Z" fill="black"/>
<path d="M103 26L94.6368 32.4665L81.1383 42.917L77.0627 46.0963L63.0018 56.9688L53.8316 64.0731L34.8881 81H6L17.3139 72.2373L27.8617 64.0731L34.8881 58.6173L48.949 47.7056L55.9754 42.917H6.13857L17.3139 34.2525L27.9676 26H103Z" fill="black"/>
</svg>
